<?xml version="1.0" encoding="utf-8"?>
<!-- Generator: Adobe Illustrator 24.1.1, SVG Export Plug-In . SVG Version: 6.00 Build 0)  -->
<svg version="1.1" id="Layer_1" xmlns="http://www.w3.org/2000/svg" xmlns:xlink="http://www.w3.org/1999/xlink" x="0px" y="0px"
	 viewBox="0 0 512 512" style="enable-background:new 0 0 512 512;" xml:space="preserve">
<style type="text/css">
	.st0{fill:#FFFFFF;}
</style>
<path class="st0" d="M491,106.8H90.6l-6-66.3c-1-10.8-10.1-19.1-20.9-19.1H21c-11.6,0-21,9.4-21,21s9.4,21,21,21h23.5
	c12.8,143.1-20.3-226.7,24.2,269.4c1.7,19.4,12.2,40.5,30.3,54.8c-32.6,41.6-2.8,103,50.2,103c44,0,75-43.9,59.9-85.4h115.1
	c-15.1,41.5,15.9,85.4,59.9,85.4c35.2,0,63.7-28.6,63.7-63.7s-28.6-63.7-63.7-63.7H149.3c-16,0-29.9-9.6-35.9-23.7l336-19.7
	c9.2-0.5,16.9-7,19.2-15.9l42.7-170.9C514.7,119.7,504.6,106.8,491,106.8L491,106.8z M149.2,448.6c-12,0-21.7-9.7-21.7-21.7
	s9.7-21.7,21.7-21.7c12,0,21.7,9.7,21.7,21.7S161.2,448.6,149.2,448.6z M384.2,448.6c-12,0-21.7-9.7-21.7-21.7s9.7-21.7,21.7-21.7
	s21.7,9.7,21.7,21.7S396.1,448.6,384.2,448.6z M431.6,278.6l-323.8,19L94.4,148.9H464L431.6,278.6z"/>
</svg>
